# xmcd CD database file
#
# Track frame offsets:
#	150
#	16980
#	34873
#	50605
#	68154
#	79165
#	96138
#	116510
#	124653
#	139476
#	154882
#	184461
#	202202
#	233271
#
# Disc length: 3499 seconds
#
# Revision: 25
# Processed by: cddbd v1.5.2PL0 Copyright (c) Steve Scherf et al.
# Submitted via: CdAid (MTCDDB.DLL V2003.12.21)
#
DISCID=c40da90e
DTITLE=Janis Joplin - Pearl
DYEAR=1971
DGENRE=Blues
TTITLE0=Move Over
TTITLE1=Cry Baby
TTITLE2=A Woman Left Lonely
TTITLE3=Half Moon
TTITLE4=Buried Alive In The Blues
TTITLE5=My Baby
TTITLE6=Me And Bobby McGee
TTITLE7=Mercedes Benz
TTITLE8=Trust Me
TTITLE9=Get It While You Can
TTITLE10=Tell Mama (Live)
TTITLE11=Little Girl Blue (Live)
TTITLE12=Try (Just A Little Bit Harder) (Live)
TTITLE13=Cry Baby (Live)
EXTD=JANIS JOPLIN - PEARL\nDigitally remastered with 4 previously unreleased b
EXTD=onus tracks\n© 1999\nLabel: Columbia - Sony\nCOL 492865 2\nCD Text ID3G: 
EXTD=0 YEAR: 1971
EXTT0=
EXTT1=
EXTT2=
EXTT3=
EXTT4=
EXTT5=
EXTT6=
EXTT7=
EXTT8=
EXTT9=
EXTT10=
EXTT11=
EXTT12=
EXTT13=
PLAYORDER=
